@startuml

package "BusinessRules" #fff {
    package Entity #ccc {
        class User {
            {field} id: int
            {field} firstName: string
            {field} lastName: string
            {field} email: string
            {field} password: string
            {field} plainPassword: string
            {field} registeredAt: DateTimeInterface
        }

        class Recruiter

        class JobSeeker {
           {field} gradeLevel: int
           {field} activity: string
           {field} presentation: string
           {field} phone: string
           {field} available: bool
           {field} availableFrom: DateTimeInterface
           {field} minSalary: int
           {field} maxSalary: int
           {field} location: string
           {field} remote: bool
           {field} remoteOnly: bool
        }

        class Offer {
           {field} id: int
           {field} name: string
           {field} companyDescription: string
           {field} jobDescription: string
           {field} missions: string
           {field} tasks: string
           {field} profile: string
           {field} softSkills: string
           {field} minSalary: int
           {field} maxSalary: int
           {field} location: string
           {field} remote: bool
           {field} publishedAt: DateTimeInterface
           {field} deletedAt: DateTimeInterface
        }

        class Application {
            {field} id: int
            {field} sentAt: DateTimeInterface
            {field} message: string
            {field} state: string
            {field} reasonForRejection: ?string
        }

        class Interest

        class BusinessSector
        class Job
        class Skill
        class WorkExperience
        class EducationalBackground
        class Media
        class Locale
        class LocaleLevel
        class ContractType

        class Notification
        class NotificationModel

        User <|-- Recruiter
        User <|-- JobSeeker

        NotificationModel "One" --o "Many" Notification: To

        User "One" --o "Many" Notification: To

        Recruiter "One" --o "Many" Offer: To
        JobSeeker "One" --o "Many" Application: To

        Offer "One" --* "Many" Application: To
        Offer "Many" *-- "One" Job: To
        Offer "Many" *-- "Many" Skill: To
        Offer "Many" *-- "One" ContractType: To
        Offer "One" o-- "Many" LocaleLevel: To
        Offer "One" --* "Many" Interest: To

        JobSeeker "One" *-- "Many" Interest: To
        JobSeeker "Many" *-- "One" Job: To
        JobSeeker "Many" *-- "Many" Skill: To
        JobSeeker "Many" *-- "One" ContractType: To
        JobSeeker "One" o-- "Many" LocaleLevel: To
        JobSeeker "One" o-- "Many" WorkExperience: To
        JobSeeker "One" o-- "Many" EducationalBackground: To
        JobSeeker "One" o-- "Many" Media: To

        Locale "One" --* "Many" LocaleLevel: To
    }
}

@enduml
